# xmcd
#
# Track frame offsets:
#	150
#	14681
#	28760
#	42773
#	57081
#	71480
#	85659
#	99994
#	114031
#	126266
#	140651
#	155355
#	168350
#	182711
#	197311
#	209946
#	223688
#	236375
#	248069
#	263537
#	277085
#	290477
#	303731
#	319844
#
# Disc length: 4431 seconds
#
# Revision: 1
# Processed by: cddbd v1.5.1PL0 Copyright (c) Steve Scherf et al.
# Submitted via: audiograbber 1.83.01
#
DISCID=5b114d18
DTITLE=Female Blues Singers - Complete Recorded Works - 1996 - Vol 7: G/H (1922
DTITLE=1929) DOCD-5511
DYEAR=1997
DGENRE=Blues
TTITLE0=Grievous Blues
TTITLE1=I've Got The Blues, That's All
TTITLE2=Grievious Blues
TTITLE3=All Alone Blues
TTITLE4=I've Got A Do Right Daddy Now
TTITLE5=I Believe My Man Is Got A Rabbit's Leg
TTITLE6=Goosby Blues
TTITLE7=Can't Use You Blues 
TTITLE8=Dirty Moaner Blues
TTITLE9=Fortune Teller Blues
TTITLE10=Stormy Night Blues
TTITLE11=The Reverend Is My Man
TTITLE12=Just Like You Walked In, You Can Walk Out
TTITLE13=Sad And Lonely Blues
TTITLE14=Mama's Got Something I Know You Want it
TTITLE15=Alley Man (Haul My Ashes)
TTITLE16=Don't Wear Your Welcome Out
TTITLE17=Morning Dove Blues
TTITLE18=East And West Blues
TTITLE19=M.C. Blues
TTITLE20=Better Give Your Sweetie What She Needs
TTITLE21=I Wanna Jazz Some More
TTITLE22=Loveless Love
TTITLE23=Early Every Morn
EXTD=Document Records, Austria
EXTT0=
EXTT1=
EXTT2=
EXTT3=
EXTT4=
EXTT5=
EXTT6=
EXTT7=
EXTT8=
EXTT9=
EXTT10=
EXTT11=
EXTT12=
EXTT13=
EXTT14=
EXTT15=
EXTT16=
EXTT17=
EXTT18=
EXTT19=
EXTT20=
EXTT21=
EXTT22=
EXTT23=
PLAYORDER=
